<svg width="580" height="320" viewBox="0 0 580 320" xmlns="http://www.w3.org/2000/svg">

  <rect width="100%" height="100%" fill="#111"/>

  <g fill="#00ff00" font-family="monospace" text-anchor="middle">

    <!-- лівий блок -->
    <text transform="matrix(3.2 0.1 -0.1 3 40 40)" x="0" y="0">1</text>
    <text transform="matrix(3.1 -0.1 0.1 3.1 120 60)" x="0" y="0">1</text>

    <!-- центр -->
    <text transform="matrix(2.8 0.2 -0.15 2.9 220 120)" x="0" y="0">1</text>

    <!-- 0 зверху (i dot) -->
    <text transform="matrix(1.5 0.1 0 1.5 260 40)" x="0" y="0">0</text>
    <text transform="matrix(1.5 -0.1 0 1.5 340 50)" x="0" y="0">0</text>

    <!-- середина -->
    <text transform="matrix(3 0.05 -0.05 3 300 150)" x="0" y="0">1</text>

    <!-- правий блок -->
    <text transform="matrix(3.2 -0.1 0.1 3.1 400 160)" x="0" y="0">1</text>
    <text transform="matrix(3.3 0.1 -0.1 3.2 480 170)" x="0" y="0">1</text>

  </g>

</svg>
